<svg xmlns="http://www.w3.org/2000/svg" width="1536" height="1536" viewBox="0 0 1536 1536">
  <!-- Black square background -->
  <path fill="black" d="M1536 288v960q0 119-84.5 203.5T1248 1536H288q-119 0-203.5-84.5T0 1248V288Q0 169 84.5 84.5T288 0h960q119 0 203.5 84.5T1536 288" />
  
  <!-- Centered, slightly smaller link icon -->
  <g transform="translate(768 768) scale(112) translate(-6 -6)">
    <path fill="white" d="M.998 3.248a2.25 2.25 0 0 1 2.25-2.25h2.504A2.25 2.25 0 0 1 8 3.161v2.677a2.25 2.25 0 0 1-1.5 2.036l.002-4.626a.75.75 0 0 0-.75-.75H3.248a.75.75 0 0 0-.75.75v2.504c0 .327.21.605.502.708v1.528A2.25 2.25 0 0 1 .998 5.752zM4 8.75A2.25 2.25 0 0 0 6.25 11h2.5A2.25 2.25 0 0 0 11 8.75v-2.5a2.25 2.25 0 0 0-2-2.236v1.529c.291.103.5.38.5.707v2.5a.75.75 0 0 1-.75.75h-2.5a.75.75 0 0 1-.75-.75V4.128A2.25 2.25 0 0 0 4 6.25z"/>
  </g>
</svg>
